<svg xmlns="http://www.w3.org/2000/svg" viewBox="0 0 183.93 109.95"><defs><style>.cls-1{fill:#003b4a;}</style></defs><g id="Layer_2" data-name="Layer 2"><g id="Layer_1-2" data-name="Layer 1"><path class="cls-1" d="M0,76.05H1.11l6.37,9.38,6.36-9.38H15V91.91H13.77V78.13L7.5,87.26H7.41L1.13,78.13V91.91H0Z"/><path class="cls-1" d="M24.67,76.05h1.18V90.82h9.31v1.09H24.67Z"/><path class="cls-1" d="M50.6,76.05H61.89v1.08H51.78v6.23h9.09v1.09H51.78v6.37H62v1.09H50.6Z"/><path class="cls-1" d="M70.31,76.05h1.11l6.37,9.38,6.37-9.38h1.11V91.91H84.09V78.13l-6.28,9.13h-.09l-6.27-9.13V91.91H70.31Z"/><path class="cls-1" d="M95.45,76.05h5.76c3.49,0,5.89,1.79,5.89,4.85v0c0,3.33-2.88,5-6.19,5H96.63v5.92H95.45ZM101,84.91c3,0,4.94-1.55,4.94-3.9V81c0-2.51-2-3.83-4.8-3.83H96.63v7.78Z"/><path class="cls-1" d="M112.52,84v0a8,8,0,0,1,8-8.21,7.9,7.9,0,0,1,8,8.16s0,0,0,0a8,8,0,1,1-16,0Zm14.73,0v0a6.86,6.86,0,0,0-6.77-7.14,6.79,6.79,0,0,0-6.73,7.09v0a6.76,6.76,0,1,0,13.5,0Z"/><path class="cls-1" d="M137,76.05h6.66a6.27,6.27,0,0,1,4.47,1.56,4.22,4.22,0,0,1,1.2,3v0c0,2.65-2,4.17-4.65,4.53l5.24,6.78h-1.5l-5.05-6.57h-5.19v6.57H137Zm6.53,8.22c2.65,0,4.62-1.34,4.62-3.62V80.6c0-2.13-1.68-3.47-4.55-3.47h-5.42v7.14Z"/><path class="cls-1" d="M158.08,76.05h1.18V91.91h-1.18Z"/><path class="cls-1" d="M168,84v0a8,8,0,1,1,15.95,0s0,0,0,0a8,8,0,0,1-8,8.2A7.91,7.91,0,0,1,168,84Zm14.72,0v0a6.86,6.86,0,0,0-6.77-7.14,6.79,6.79,0,0,0-6.73,7.09v0A6.86,6.86,0,0,0,176,91.11,6.78,6.78,0,0,0,182.68,84Z"/><rect class="cls-1" x="83.82" y="33.66" width="12.7" height="10.92"/><polygon class="cls-1" points="81.93 55.7 81.93 25.08 74.85 25.08 74.85 55.7 70.46 55.7 70.46 56.78 105.91 56.78 105.91 55.7 81.93 55.7"/><path class="cls-1" d="M43.31,103.71H41.43v6.15h.78v-2.13h1a2,2,0,0,0,2.25-2v0A2,2,0,0,0,43.31,103.71ZM43.25,107h-1v-2.59h1.07c.91,0,1.43.46,1.43,1.29A1.29,1.29,0,0,1,43.25,107Z"/><path class="cls-1" d="M53.22,105.59v0a1.76,1.76,0,0,0-.49-1.28,2.24,2.24,0,0,0-1.63-.58H49v6.15h.77v-2.34H51l1.5,2.31v0h.93l-1.63-2.5A1.76,1.76,0,0,0,53.22,105.59Zm-3.47-1.16h1.3c.89,0,1.4.42,1.4,1.17h0c0,.75-.55,1.2-1.46,1.2H49.75Z"/><path class="cls-1" d="M59.33,103.61c-1.54,0-2.66,1.33-2.66,3.15v.07c0,1.84,1.09,3.12,2.65,3.12S62,108.63,62,106.81v-.07C62,104.93,60.86,103.61,59.33,103.61Zm0,5.62c-1.08,0-1.86-1-1.86-2.42v-.06c0-1.4.78-2.42,1.85-2.42s1.86,1,1.86,2.43v.06C61.18,108.22,60.4,109.23,59.33,109.23Z"/><path class="cls-1" d="M67.52,103.71H65.64v6.15h.77v-2.13h1a2,2,0,0,0,2.26-2v0A2,2,0,0,0,67.52,103.71ZM67.46,107h-1v-2.59h1.07c.92,0,1.44.46,1.44,1.29A1.29,1.29,0,0,1,67.46,107Z"/><polygon class="cls-1" points="73.95 107.11 76.67 107.11 76.67 106.4 73.95 106.4 73.95 104.43 76.98 104.43 76.98 103.71 73.18 103.71 73.18 109.86 77.03 109.86 77.03 109.14 73.95 109.14 73.95 107.11"/><path class="cls-1" d="M84.87,105.59v0a1.76,1.76,0,0,0-.49-1.28,2.2,2.2,0,0,0-1.63-.58H80.63v6.15h.77v-2.34h1.27l1.5,2.31,0,0h.92l-1.63-2.5A1.76,1.76,0,0,0,84.87,105.59Zm-3.47-1.16h1.31c.88,0,1.39.42,1.39,1.17h0c0,.75-.55,1.2-1.46,1.2H81.4Z"/><polygon class="cls-1" points="88.09 104.44 89.78 104.44 89.78 109.86 90.55 109.86 90.55 104.44 92.24 104.44 92.24 103.71 88.09 103.71 88.09 104.44"/><rect class="cls-1" x="95.8" y="103.71" width="0.77" height="6.15"/><polygon class="cls-1" points="101.3 107.11 104.02 107.11 104.02 106.4 101.3 106.4 101.3 104.43 104.33 104.43 104.33 103.71 100.53 103.71 100.53 109.86 104.37 109.86 104.37 109.14 101.3 109.14 101.3 107.11"/><path class="cls-1" d="M109.94,106.41c-1.15-.42-1.36-.71-1.36-1.18h0a1,1,0,0,1,1.08-.88,2.1,2.1,0,0,1,1.4.57l0,0,.46-.6,0,0a2.64,2.64,0,0,0-1.85-.7,1.74,1.74,0,0,0-1.88,1.66h0c0,.86.47,1.34,1.78,1.83,1.1.38,1.3.69,1.3,1.15s-.47,1-1.15,1a2.31,2.31,0,0,1-1.65-.73l0,0-.48.58,0,0a3,3,0,0,0,2.13.87,1.76,1.76,0,0,0,1.93-1.7v0C111.65,107.38,111.18,106.87,109.94,106.41Z"/><polygon class="cls-1" points="120.84 103.71 120.07 103.71 120.07 109.86 123.64 109.86 123.64 109.14 120.84 109.14 120.84 103.71"/><polygon class="cls-1" points="126.03 104.44 127.72 104.44 127.72 109.86 128.49 109.86 128.49 104.44 130.18 104.44 130.18 103.71 126.03 103.71 126.03 104.44"/><path class="cls-1" d="M135.45,103.71h-1.76v6.15h1.76a2.85,2.85,0,0,0,2.9-3v-.06A2.84,2.84,0,0,0,135.45,103.71Zm-1,.72h1a2.11,2.11,0,0,1,2.12,2.33v.06a2.08,2.08,0,0,1-2.12,2.32h-1Z"/><rect class="cls-1" x="141.59" y="108.84" width="0.9" height="1.01"/><polygon class="cls-1" points="88.98 0 82.02 17.02 75.31 0 63.21 0 63.21 0.94 67.48 0.94 67.48 30.76 63.22 30.76 63.22 31.71 72.94 31.71 72.94 30.76 68.71 30.76 68.71 1.48 68.71 1.37 77.6 23.13 80.73 23.13 89.37 2.4 89.37 30.76 83.82 30.76 83.82 31.71 96.53 31.71 96.53 0.94 96.53 0 88.98 0"/><polygon class="cls-1" points="105.7 27.45 105.7 16.9 120.72 16.9 120.72 15.85 98.44 15.85 98.44 46.51 83.83 46.51 83.83 47.56 120.72 47.56 120.72 46.51 105.7 46.51 105.7 35.11 105.7 31.71 115.74 31.71 115.74 30.66 105.7 30.66 105.7 30.28 105.7 27.45"/></g></g></svg>