<svg xmlns="http://www.w3.org/2000/svg" width="142" height="42" viewBox="0 0 142 42">
    <g fill="#6E8281" fill-rule="nonzero">
        <path d="M34.039 25.066h4.358V10.281l-4.358-5.95v20.735zm54.753-12.561l1.261 1.734h3.813v5.21l4.359 5.949V12.505h-9.433zm9.244-5.96a15.037 15.037 0 0 0-1.782-2.338 12.095 12.095 0 0 0-2.388-2A12.798 12.798 0 0 0 90.9.828 11.732 11.732 0 0 0 87.36.314a14.637 14.637 0 0 0-3.784.477 14.047 14.047 0 0 0-3.287 1.334 13.095 13.095 0 0 0-2.715 2.05 12.54 12.54 0 0 0-2.037 2.611c-.558.953-.99 1.974-1.287 3.037a12.3 12.3 0 0 0-.451 3.315 11.574 11.574 0 0 0 .47 3.292c.308 1.05.758 2.053 1.337 2.98.589.931 1.298 1.78 2.11 2.524.838.768 1.77 1.426 2.775 1.958 1.058.556 2.181.98 3.343 1.262 1.244.304 2.52.456 3.8.45 1.24 0 2.372-.05 3.362-.144.92-.087 1.83-.237 2.728-.451h.041l.25-.07-1.363-1.838-.13.06c-.25.119-.507.224-.769.315-.9.29-1.84.431-2.784.42a10.461 10.461 0 0 1-3.974-.758 9.401 9.401 0 0 1-3.208-2.15 10.18 10.18 0 0 1-2.154-3.381 12.082 12.082 0 0 1-.791-4.472 13.047 13.047 0 0 1 .725-4.476c.44-1.25 1.13-2.4 2.025-3.377a8.998 8.998 0 0 1 3.081-2.151 9.934 9.934 0 0 1 3.886-.75 6.866 6.866 0 0 1 4.14 1.314c1.205.883 2.315 2.29 3.302 4.185l.092.174 2.034-1.366-.091-.145zm-52.464 6.88a9.944 9.944 0 0 0 2.164-.832 7.736 7.736 0 0 0 1.892-1.384 5.84 5.84 0 0 0 1.227-1.798c.29-.682.438-1.416.432-2.157a5.876 5.876 0 0 0-.568-2.567 5.677 5.677 0 0 0-1.678-2.032 8.137 8.137 0 0 0-2.753-1.32 13.987 13.987 0 0 0-3.822-.47h-8.424v1.85h7.705c.667-.007 1.33.11 1.955.347.57.217 1.091.545 1.533.965.432.421.775.925 1.006 1.483.245.6.369 1.243.363 1.892a4.444 4.444 0 0 1-.455 2.025 4.504 4.504 0 0 1-1.261 1.542 6.074 6.074 0 0 1-1.92.987c-.79.238-1.611.353-2.435.344h-.653l9.344 12.763h5.078l-8.73-11.637zM139.508.87v17.312L124.036.946l-.05-.06h-2.499v24.18h2.142V6.377l16.756 19.194.05.06h1.183V.87h-2.11zm-32.216 24.196h4.352V.87h-4.352v24.196zm-45.339 0h4.359V.87h-4.359v24.196zM26.176 9.486A12.37 12.37 0 0 0 24.858 6.5a12.218 12.218 0 0 0-2.066-2.523 13.476 13.476 0 0 0-5.885-3.21 14.794 14.794 0 0 0-7.174 0 13.476 13.476 0 0 0-5.88 3.207 12.218 12.218 0 0 0-2.065 2.523A12.37 12.37 0 0 0 .47 9.483a11.798 11.798 0 0 0-.47 3.34c-.004 1.151.154 2.297.47 3.403.304 1.071.747 2.098 1.318 3.053.57.954 1.264 1.827 2.066 2.596.807.778 1.71 1.451 2.687 2.002 1.005.565 2.077 1 3.192 1.293 2.352.615 4.822.615 7.174 0a13.542 13.542 0 0 0 3.192-1.293 13.271 13.271 0 0 0 2.687-2.002 12.423 12.423 0 0 0 2.066-2.596 12.877 12.877 0 0 0 1.324-3.062c.312-1.104.47-2.246.467-3.394a11.798 11.798 0 0 0-.467-3.336zm-4.595 3.337a17.828 17.828 0 0 1-.548 4.523 11.2 11.2 0 0 1-1.602 3.564 7.57 7.57 0 0 1-2.583 2.327 7.317 7.317 0 0 1-3.526.833 7.16 7.16 0 0 1-6.172-3.154 10.982 10.982 0 0 1-1.577-3.56 18.31 18.31 0 0 1-.527-4.533 17.522 17.522 0 0 1 .533-4.447c.31-1.242.845-2.418 1.577-3.469A7.333 7.333 0 0 1 9.739 2.66a7.711 7.711 0 0 1 3.583-.801 7.54 7.54 0 0 1 3.529.8 7.415 7.415 0 0 1 2.583 2.25 10.723 10.723 0 0 1 1.599 3.468c.377 1.452.561 2.947.548 4.447zM106.488 40.908a1.974 1.974 0 0 1-1.047-.792 2.485 2.485 0 0 1-.316-.65l-.671.278c.094.26.221.507.378.735.15.214.337.4.552.549.227.155.479.27.744.34.309.082.627.121.946.117.394.008.786-.048 1.161-.167.305-.097.588-.252.833-.457.217-.186.39-.417.504-.679.112-.26.169-.542.167-.826a1.372 1.372 0 0 0-.183-.706 2.346 2.346 0 0 0-.473-.584 4.296 4.296 0 0 0-.671-.492 20.156 20.156 0 0 0-.77-.432l-.77-.407a5.125 5.125 0 0 1-.671-.416 2.283 2.283 0 0 1-.473-.464.855.855 0 0 1-.183-.533 1 1 0 0 1 .088-.41c.062-.135.151-.256.262-.356.128-.112.275-.198.435-.255.203-.071.416-.104.63-.098.24-.004.48.032.707.107a1.851 1.851 0 0 1 .975.801c.117.2.213.41.284.63l.63-.292c-.149-.51-.458-.96-.883-1.28a2.797 2.797 0 0 0-1.665-.442c-.35-.006-.7.045-1.034.151a2.23 2.23 0 0 0-.76.42 1.77 1.77 0 0 0-.47.63c-.109.25-.163.52-.161.792-.005.262.056.521.177.754.12.221.275.422.46.593.2.18.42.342.653.479.246.142.495.28.75.413l.748.391c.23.119.448.258.653.416.178.138.333.303.46.49.118.179.18.39.177.605a.968.968 0 0 1-.13.498c-.085.144-.2.269-.337.366a1.485 1.485 0 0 1-.48.22c-.177.05-.36.076-.545.076a2.208 2.208 0 0 1-.684-.104l.003-.01zm.681.113a2.208 2.208 0 0 1-.684-.104 1.974 1.974 0 0 1-1.047-.791 2.485 2.485 0 0 1-.316-.65l-.672.278c.095.26.222.507.379.734.15.214.337.4.552.55.227.154.478.27.744.34.309.081.627.12.946.116.394.009.786-.048 1.16-.167.306-.096.588-.252.833-.457.218-.185.39-.417.505-.678.112-.261.169-.542.167-.826a1.372 1.372 0 0 0-.183-.707 2.346 2.346 0 0 0-.473-.583 4.296 4.296 0 0 0-.671-.492 20.156 20.156 0 0 0-.77-.432l-.77-.407a5.125 5.125 0 0 1-.671-.416 2.283 2.283 0 0 1-.473-.464.855.855 0 0 1-.183-.533 1 1 0 0 1 .088-.41c.062-.136.151-.257.262-.356.128-.112.275-.199.435-.256.203-.07.416-.104.63-.098.24-.004.48.033.707.108a1.851 1.851 0 0 1 .975.8c.117.2.212.411.284.631l.63-.293c-.149-.51-.459-.96-.883-1.28a2.797 2.797 0 0 0-1.665-.442c-.35-.006-.7.045-1.034.152a2.23 2.23 0 0 0-.76.419 1.77 1.77 0 0 0-.47.63c-.109.25-.164.52-.161.792-.005.262.056.521.176.754.12.222.276.422.46.593.202.181.42.342.654.48.246.141.495.28.75.413l.748.39c.23.12.448.259.653.417.178.138.333.303.46.489.118.18.18.39.177.605a.968.968 0 0 1-.13.499c-.085.144-.2.268-.337.365a1.485 1.485 0 0 1-.48.221c-.177.05-.36.076-.545.076l.003-.01zm-10.215-7.115v7.409h5.166v-.48h-3.91v-3.333h2.614v-.48h-2.615v-2.646h3.91v-.479l-5.165.01zm0 0v7.409h5.166v-.48h-3.91v-3.333h2.614v-.48h-2.615v-2.646h3.91v-.479l-5.165.01zm-4.74 7.409h1.246v-7.427h-1.246v7.427zm0 0h1.246v-7.427h-1.246v7.427zm-9.408-7.424v.485h2.69v6.939h1.262v-6.939h2.684v-.479l-6.636-.006zm0 0v.485h2.69v6.939h1.262v-6.939h2.684v-.479l-6.636-.006zm-7.525 0h2.567c.397-.007.793.042 1.177.145.302.08.586.216.839.4.215.163.389.373.507.615.115.242.173.506.17.773.002.223-.043.445-.132.65a1.725 1.725 0 0 1-.369.542 2.435 2.435 0 0 1-.564.42 3.277 3.277 0 0 1-.742.274l2.69 3.605H79.98l-2.58-3.492h-.873v3.492h-1.262l.016-7.424zm1.262 3.56h.719c.263.003.524-.035.775-.113.229-.065.443-.172.631-.316.359-.274.565-.703.555-1.154a1.577 1.577 0 0 0-.116-.612 1.403 1.403 0 0 0-.82-.788 1.7 1.7 0 0 0-.631-.114h-1.098l-.015 3.097zm-1.262-3.56h2.567c.397-.007.793.042 1.177.145.302.08.586.216.839.4.215.163.389.373.507.615.115.242.173.506.17.773.002.223-.043.445-.132.65a1.725 1.725 0 0 1-.369.542 2.435 2.435 0 0 1-.564.42 3.277 3.277 0 0 1-.742.274l2.69 3.605H79.98l-2.58-3.492h-.873v3.492h-1.262l.016-7.424zm1.262 3.56h.719c.263.003.524-.035.775-.113.229-.065.443-.172.631-.316.359-.274.565-.703.555-1.154a1.577 1.577 0 0 0-.116-.612 1.403 1.403 0 0 0-.82-.788 1.7 1.7 0 0 0-.631-.114h-1.098l-.015 3.097zm-9.427-3.56v7.424h5.16v-.48h-3.911v-3.333h2.595v-.48h-2.614v-2.646h3.91v-.479l-5.14-.006zm0 0v7.424h5.16v-.48h-3.911v-3.333h2.595v-.48h-2.614v-2.646h3.91v-.479l-5.14-.006zm-7.866 0h2.35c.368-.003.736.045 1.091.142.317.083.616.223.883.413.246.175.45.402.596.665.149.277.224.588.218.902.008.307-.065.61-.211.88-.136.25-.326.465-.556.63a2.381 2.381 0 0 1-.782.367c-.29.08-.59.12-.892.12h-.404c-.145 0-.28 0-.41-.029-.13-.028-.255-.025-.366-.04a1.81 1.81 0 0 1-.27-.048v3.422h-1.262l.015-7.424zm1.262 3.57c.139.04.29.075.45.113.162.035.327.053.493.054.241.005.481-.036.706-.123.377-.139.671-.44.801-.82.067-.193.1-.395.098-.6a1.744 1.744 0 0 0-.13-.677 1.53 1.53 0 0 0-.356-.52 1.577 1.577 0 0 0-.526-.316 1.842 1.842 0 0 0-.65-.117h-.886v3.006zm-1.262-3.57h2.35c.368-.003.736.045 1.091.142.317.083.616.223.883.413.246.175.45.402.596.665.149.277.224.588.218.902.008.307-.065.61-.211.88-.136.25-.326.465-.556.63a2.381 2.381 0 0 1-.782.367c-.29.08-.59.12-.892.12h-.404c-.145 0-.28 0-.41-.029-.13-.028-.255-.025-.366-.04a1.81 1.81 0 0 1-.27-.048v3.422h-1.262l.015-7.424zm1.262 3.57c.139.04.29.075.45.113.162.035.327.053.493.054.241.005.481-.036.706-.123.377-.139.671-.44.801-.82.067-.193.1-.395.098-.6a1.744 1.744 0 0 0-.13-.677 1.53 1.53 0 0 0-.356-.52 1.577 1.577 0 0 0-.526-.316 1.842 1.842 0 0 0-.65-.117h-.886v3.006zm-20.699-3.57h2.57a4.2 4.2 0 0 1 1.174.145c.303.078.588.214.839.4.215.163.39.373.508.615.115.242.173.506.17.773.001.223-.043.444-.13.65-.089.202-.215.386-.371.542-.17.17-.363.312-.574.423-.236.12-.485.212-.742.274l2.669 3.602h-1.442l-2.58-3.492h-.873v3.492h-1.262l.044-7.424zm1.262 3.56h.72c.262.003.524-.035.775-.113.223-.067.431-.174.615-.316a1.444 1.444 0 0 0 .555-1.154c.001-.21-.04-.418-.12-.612a1.403 1.403 0 0 0-.315-.48 1.448 1.448 0 0 0-.495-.314 1.697 1.697 0 0 0-.631-.114H41.03l.044 3.103zm-9.114-3.56h2.35c.368-.003.735.045 1.09.142.317.083.616.223.883.413.246.175.45.402.596.665.15.277.224.588.218.902.008.307-.065.61-.211.88a1.911 1.911 0 0 1-.552.63 2.428 2.428 0 0 1-.785.367c-.291.08-.591.12-.893.12h-.404c-.142 0-.28 0-.41-.029-.129-.028-.255-.025-.365-.04a1.687 1.687 0 0 1-.269-.048v3.422h-1.261l.013-7.424zm1.261 3.57c.139.04.287.075.448.113.163.035.329.053.495.054.241.005.481-.037.706-.123.187-.068.357-.176.499-.315.14-.14.248-.307.315-.492.067-.193.1-.396.098-.6a1.744 1.744 0 0 0-.13-.678 1.53 1.53 0 0 0-.356-.52 1.577 1.577 0 0 0-.526-.315 1.842 1.842 0 0 0-.65-.117h-.883l-.016 2.993zm-1.261-3.57h2.35c.368-.003.735.045 1.09.142.317.083.616.223.883.413.246.175.45.402.596.665.15.277.224.588.218.902.008.307-.065.61-.211.88a1.911 1.911 0 0 1-.552.63 2.428 2.428 0 0 1-.785.367c-.291.08-.591.12-.893.12h-.404c-.142 0-.28 0-.41-.029-.129-.028-.255-.025-.365-.04a1.687 1.687 0 0 1-.269-.048v3.422h-1.261l.013-7.424zm1.261 3.57c.139.04.287.075.448.113.163.035.329.053.495.054.241.005.481-.037.706-.123.187-.068.357-.176.499-.315.14-.14.248-.307.315-.492.067-.193.1-.396.098-.6a1.744 1.744 0 0 0-.13-.678 1.53 1.53 0 0 0-.356-.52 1.577 1.577 0 0 0-.526-.315 1.842 1.842 0 0 0-.65-.117h-.883l-.016 2.993zm6.623-3.57h2.57a4.2 4.2 0 0 1 1.174.145c.302.078.587.214.838.4.216.163.39.373.508.615.115.242.173.506.17.773.002.223-.042.444-.129.65-.09.202-.215.386-.372.542-.169.17-.362.312-.574.423-.235.12-.484.212-.741.274l2.637 3.602h-1.442l-2.58-3.492h-.873v3.492h-1.262l.076-7.424zm1.262 3.56h.719c.263.003.524-.035.775-.113.223-.067.432-.174.615-.316a1.444 1.444 0 0 0 .555-1.154c.002-.21-.04-.418-.12-.612a1.403 1.403 0 0 0-.315-.48 1.448 1.448 0 0 0-.495-.314 1.697 1.697 0 0 0-.63-.114h-1.18l.076 3.103zm10.927 4.037a4.21 4.21 0 0 1-2.081-.536 4.05 4.05 0 0 1-.826-.63 3.756 3.756 0 0 1-.631-.799 3.826 3.826 0 0 1-.407-3.015c.096-.32.233-.628.407-.914.174-.286.386-.547.63-.776a4.147 4.147 0 0 1 1.808-.987 4.548 4.548 0 0 1 2.207 0 4.185 4.185 0 0 1 1.808.987 3.785 3.785 0 0 1 1.034 1.69c.098.333.147.678.145 1.025.001.352-.048.703-.145 1.041-.092.332-.228.65-.404.946a3.756 3.756 0 0 1-.63.798 4.05 4.05 0 0 1-.827.63 4.188 4.188 0 0 1-2.084.537l-.004.003zm.004-.375c.391.007.778-.084 1.126-.265.327-.18.609-.434.823-.741.233-.343.405-.724.507-1.126.118-.466.175-.945.17-1.426a5.425 5.425 0 0 0-.17-1.4 3.419 3.419 0 0 0-.507-1.097 2.356 2.356 0 0 0-.823-.716 2.406 2.406 0 0 0-1.126-.256 2.447 2.447 0 0 0-1.142.256 2.33 2.33 0 0 0-.823.716c-.231.332-.4.704-.499 1.097a5.57 5.57 0 0 0-.167 1.4c-.003.48.053.96.167 1.426.098.402.267.783.499 1.126.213.308.495.561.823.74.352.183.745.274 1.142.266z"/>
    </g>
</svg>
