<?xml version="1.0" encoding="utf-8"?>
<!-- generated at drububu.com  -->
<!DOCTYPE svg PUBLIC "-//W3C//DTD SVG 1.1//EN" "http://www.w3.org/Graphics/SVG/1.1/DTD/svg11.dtd">
<svg version="1.1" preserveAspectRatio="xMinYMin meet" xmlns="http://www.w3.org/2000/svg" xmlns:xlink="http://www.w3.org/1999/xlink" x="0px" y="0px" width="23px" height="24px" viewBox="0 0 23 24">
<path d="M0 0h6v1h3v1h2v1h2v1h1v1h3v1h1v1h1v1h1v1h1v2h1v2h1v9h-1v2h-3v-1h-1v-1
	h-1v-1h-1v-1h-1v-1h-2v-1h-4v-1h-2v-1h-2v-2h-1v-1h-1v-2h-1v-7h-1v-1h-1v-3z" fill="rgb(0,0,0)"/>
<path d="M6 0h17v13h-1v-2h-1v-2h-1v-1h-1v-1h-1v-1h-1v-1h-3v-1h-1v-1h-2v-1h-2v-1
	h-3v-1z" fill="rgb(255,255,255)"/>
<path d="M1 1h4v1h3v1h1v1h-1v1h-1v2h1v-2h1v-1h3v1h1v1h-1v1h-1v1h-1v2h1v-1h1v-1
	h1v-2h3v1h1v2h-1v1h-1v1h-2v1h-1v2h1v-1h1v-1h1v-1h2v-1h1v-1h1v1h1v2h1v1h-2v1h-1
	v2h1v-1h1v-1h2v7h-1v2h-1v-1h-1v-1h-1v-1h-1v-1h-1v-1h-2v-1h-4v-1h-2v-1h-2v-2h-1
	v-1h-1v-2h-1v-7h-1v-1h-1v-1z" fill="rgb(241,181,69)"/>
<path d="M0 3h1v1h1v7h1v2h1v1h1v2h2v1h2v1h4v1h2v1h1v1h1v1h1v1h1v1h-19v-21z" fill="rgb(255,255,255)"/>
<path d="M9 3h1v1h-1v-1z" fill="rgb(161,123,51)"/>
<path d="M8 4h1v1h-1v-1z" fill="rgb(161,123,51)"/>
<path d="M7 5h1v2h-1v-2z" fill="rgb(161,123,51)"/>
<path d="M12 6h1v2h-1v1h-1v1h-1v-2h1v-1h1v-1z" fill="rgb(161,123,51)"/>
<path d="M17 8h1v2h-1v1h-2v-1h1v-1h1v-1z" fill="rgb(161,123,51)"/>
<path d="M13 11h2v1h-1v1h-1v1h-1v-2h1v-1z" fill="rgb(161,123,51)"/>
<path d="M19 13h2v1h-1v1h-1v1h-1v-2h1v-1z" fill="rgb(161,123,51)"/>
<path d="M22 22h1v2h-1v-2z" fill="rgb(255,255,255)"/>
</svg>